<?xml version="1.0" standalone="no"?>
<!DOCTYPE svg PUBLIC "-//W3C//DTD SVG 20010904//EN"
 "http://www.w3.org/TR/2001/REC-SVG-20010904/DTD/svg10.dtd">
<svg version="1.0" xmlns="http://www.w3.org/2000/svg"
 width="778.000000pt" height="778.000000pt" viewBox="0 0 778.000000 778.000000"
 preserveAspectRatio="xMidYMid meet">

<g transform="translate(0.000000,778.000000) scale(0.100000,-0.100000)"
fill="#000000" stroke="none">
<path style="fill:#FFFFFF;" d="M5219 7753 c-30 -78 -40 -114 -64 -239 -14 -75 -42 -202 -61 -283
-19 -80 -53 -231 -74 -336 -91 -438 -221 -876 -449 -1517 -173 -487 -580
-1303 -757 -1519 -108 -132 -264 -271 -488 -433 -218 -158 -364 -275 -420
-335 -61 -65 -60 -44 9 173 88 274 108 376 109 541 1 153 -11 213 -49 251 -44
44 -47 44 -386 -23 l-26 -5 4 179 c3 122 11 209 24 276 12 60 23 176 29 295 6
146 14 215 29 268 40 139 63 297 71 474 6 160 11 188 48 330 23 85 62 215 87
288 68 197 160 521 184 652 12 63 34 157 48 209 28 105 26 166 -8 197 -28 26
-65 9 -109 -48 -41 -55 -450 -770 -570 -998 -195 -367 -513 -1009 -583 -1175
-148 -352 -433 -1094 -501 -1302 -82 -257 -134 -520 -166 -844 -21 -212 -20
-286 6 -456 29 -189 119 -405 222 -535 71 -88 102 -108 226 -139 82 -21 176
-68 176 -89 0 -5 -15 -17 -33 -27 -50 -28 -180 -23 -287 9 -107 32 -261 52
-349 45 -37 -3 -110 -18 -162 -33 -335 -96 -511 -219 -619 -434 -27 -54 -47
-81 -62 -85 -100 -30 -228 -89 -243 -111 -9 -14 -15 -29 -13 -34 2 -6 64 -11
138 -13 l135 -3 115 -58 c63 -32 157 -83 208 -113 50 -29 129 -69 174 -88 75
-32 141 -74 485 -309 153 -105 345 -216 444 -255 150 -60 501 -110 673 -96
168 14 357 54 467 101 73 30 109 30 162 0 65 -37 233 -61 324 -47 39 6 108 11
152 11 215 0 638 87 906 187 145 54 386 183 517 276 165 118 551 478 638 594
19 25 98 113 175 195 412 438 920 1046 1138 1362 45 65 121 173 169 240 246
342 477 722 610 1004 103 217 150 411 114 467 -9 14 -21 25 -27 25 -22 0 -80
-54 -132 -123 -30 -40 -96 -117 -147 -172 -51 -55 -119 -134 -152 -175 -90
-111 -107 -129 -183 -194 -39 -33 -126 -114 -195 -181 -69 -67 -149 -137 -179
-154 -30 -18 -118 -81 -195 -140 -78 -59 -190 -141 -251 -181 -60 -40 -137
-94 -170 -120 -33 -26 -103 -73 -155 -105 -159 -96 -361 -225 -445 -285 -85
-60 -279 -163 -289 -153 -3 4 -6 48 -6 100 l0 93 -61 118 c-69 133 -80 147
-129 172 -57 29 -118 32 -180 11 -30 -11 -58 -17 -61 -15 -4 2 -3 19 2 37 18
61 59 305 59 349 0 79 112 357 195 483 29 44 74 118 100 165 90 159 331 497
499 700 220 265 569 663 747 850 112 119 251 267 308 330 58 63 164 176 236
250 209 216 567 607 604 660 31 45 37 80 12 80 -19 0 -167 -119 -326 -262 -88
-78 -215 -189 -283 -246 -67 -57 -130 -114 -138 -128 -27 -40 -427 -383 -691
-592 -137 -108 -275 -219 -309 -247 -33 -29 -103 -75 -155 -105 -52 -29 -119
-70 -150 -90 -31 -21 -88 -54 -126 -73 -38 -20 -88 -51 -111 -70 -23 -20 -59
-41 -80 -48 -20 -7 -48 -20 -62 -30 -14 -10 -42 -19 -64 -21 l-38 -3 -23 65
c-16 44 -26 109 -34 205 -17 214 -14 323 14 465 14 69 36 208 50 310 14 102
52 363 85 580 139 925 170 1206 138 1238 -18 18 -27 15 -39 -15z"/>
</g>
</svg>
