<?xml version="1.0" standalone="no"?>
<!DOCTYPE svg PUBLIC "-//W3C//DTD SVG 20010904//EN"
 "http://www.w3.org/TR/2001/REC-SVG-20010904/DTD/svg10.dtd">
<svg version="1.0" xmlns="http://www.w3.org/2000/svg"
 width="650.000000pt" height="594.000000pt" viewBox="0 0 650.000000 594.000000"
 preserveAspectRatio="xMidYMid meet">

<g transform="translate(0.000000,594.000000) scale(0.100000,-0.100000)"
fill="#000000" stroke="none">
<path style="fill:#FFFFFF;" d="M3311 5843 c26 -107 33 -413 9 -413 -3 0 -14 24 -23 53 -33 105 -130
240 -206 289 -37 23 -55 28 -91 26 -34 -2 -44 -7 -42 -18 7 -29 29 -285 26
-289 -5 -5 4 -17 -96 120 -112 152 -147 179 -191 147 -31 -23 -24 -101 21
-218 23 -59 61 -197 87 -315 71 -319 138 -522 217 -665 17 -30 63 -95 102
-145 133 -166 139 -177 186 -335 15 -52 31 -103 35 -112 15 -38 -49 -16 -233
78 -266 135 -380 159 -558 114 -146 -37 -324 -145 -324 -197 0 -12 -16 -31
-41 -49 -73 -50 -199 -256 -168 -274 6 -4 9 -12 6 -17 -4 -6 19 -13 54 -17 33
-3 84 -13 113 -21 53 -15 53 -16 69 -73 21 -75 66 -147 169 -274 46 -57 95
-118 108 -137 31 -45 101 -214 91 -221 -5 -3 -18 -27 -30 -55 -27 -62 -51 -88
-121 -130 -100 -60 -448 -202 -573 -234 -109 -28 -217 -74 -217 -92 0 -7 41
-24 140 -58 l55 -18 -61 -31 c-63 -32 -284 -177 -454 -300 -271 -194 -529
-322 -931 -460 -175 -60 -401 -160 -396 -175 7 -22 132 -76 200 -88 40 -6 120
-9 184 -7 62 2 113 2 113 -1 -1 -9 -85 -73 -127 -97 -32 -18 -37 -25 -35 -50
2 -16 7 -32 10 -35 10 -10 237 9 325 27 43 9 81 14 83 11 3 -3 -36 -66 -87
-141 -51 -75 -90 -138 -88 -141 3 -2 50 7 104 20 67 17 141 45 225 87 69 35
128 64 133 66 12 6 7 -40 -17 -131 -12 -48 -19 -90 -15 -93 21 -13 325 120
425 186 l32 20 0 -72 c1 -204 2 -208 16 -208 20 0 244 152 308 209 31 28 59
51 62 51 3 0 6 -27 6 -60 0 -102 46 -123 154 -71 23 11 69 43 103 70 l61 50
13 -52 c15 -68 32 -100 65 -126 50 -39 111 -19 208 70 l56 51 0 -31 c0 -27 3
-31 28 -31 77 0 169 52 231 129 l40 51 30 -44 c57 -82 107 -106 180 -86 23 6
57 25 77 42 31 27 38 29 60 19 58 -26 180 4 227 56 14 16 26 19 67 15 60 -5
128 24 167 73 24 30 28 32 60 22 25 -8 50 -8 88 0 68 15 99 35 120 79 14 30
21 34 53 34 46 0 90 26 133 80 41 51 141 152 146 147 5 -6 -62 -243 -102 -357
-48 -139 -147 -339 -235 -475 -96 -147 -120 -198 -120 -261 0 -41 5 -55 25
-74 38 -36 117 -31 212 14 86 41 213 161 278 263 37 58 60 81 50 51 -2 -7 -6
-42 -9 -78 -4 -36 -13 -96 -22 -135 -54 -248 -13 -382 106 -346 47 14 123 73
181 140 24 28 48 51 53 51 5 0 6 -37 2 -85 l-7 -84 26 -7 c38 -9 105 0 149 21
50 24 137 104 174 161 l30 45 6 -28 c3 -15 8 -46 12 -68 10 -57 21 -75 50 -75
110 0 208 140 259 375 6 28 7 29 20 11 8 -10 26 -54 40 -96 37 -112 81 -145
152 -115 74 31 117 92 129 186 7 49 8 51 18 29 13 -32 25 -40 56 -40 40 0 86
35 109 83 27 57 51 180 51 266 l0 68 59 -29 c74 -37 151 -42 202 -12 l34 20 3
95 c2 87 -15 188 -42 250 -5 13 4 18 51 28 125 28 193 73 193 130 0 33 -18 61
-82 127 l-49 51 56 36 c65 44 115 108 115 148 0 39 -50 92 -144 154 l-75 49
32 14 c95 39 145 160 101 243 -15 30 -80 68 -115 69 -13 0 -12 10 9 72 21 64
22 76 11 115 -10 36 -19 48 -51 64 -71 36 -141 41 -492 29 -182 -6 -349 -13
-371 -15 -22 -3 -118 -6 -214 -8 l-175 -2 -21 60 c-12 33 -32 80 -44 103 -12
24 -20 46 -17 49 10 10 152 -39 208 -72 86 -50 111 -53 149 -15 29 28 31 35
25 77 -5 36 -2 51 14 73 22 30 26 92 10 134 -8 21 -6 27 10 36 54 29 62 114
16 175 -23 29 -24 34 -10 46 60 49 85 165 48 217 -18 24 -19 30 -6 56 21 42
18 119 -6 164 -16 31 -19 51 -15 104 7 81 -16 165 -57 212 -17 18 -30 42 -30
52 -1 29 -44 127 -73 166 -15 19 -38 40 -51 47 -22 12 -23 17 -14 43 14 41 3
149 -21 203 -20 44 -69 85 -102 85 -13 0 -20 16 -28 62 -21 119 -78 198 -143
198 -21 0 -25 7 -36 65 -16 85 -46 147 -88 185 -31 27 -42 30 -98 30 -61 0
-63 1 -59 23 6 30 -10 116 -38 208 l-22 71 -36 -5 c-20 -2 -66 -19 -104 -36
-37 -17 -69 -31 -70 -31 -2 0 -3 31 -3 68 -1 82 -18 138 -52 174 -52 56 -117
43 -171 -35 -31 -46 -95 -107 -111 -107 -6 0 -10 8 -11 18 -8 133 -41 288 -73
334 -45 68 -101 34 -151 -89 -61 -155 -87 -213 -95 -213 -4 0 -10 35 -14 78
-12 131 -50 191 -175 274 -42 28 -89 62 -104 75 -39 32 -46 29 -36 -14z"/>
</g>
</svg>
