<?xml version="1.0" standalone="no"?>
<!DOCTYPE svg PUBLIC "-//W3C//DTD SVG 20010904//EN"
 "http://www.w3.org/TR/2001/REC-SVG-20010904/DTD/svg10.dtd">
<svg version="1.0" xmlns="http://www.w3.org/2000/svg"
 width="1800.000000pt" height="1456.000000pt" viewBox="0 0 1800.000000 1456.000000"
 preserveAspectRatio="xMidYMid meet">

<g transform="translate(0.000000,1456.000000) scale(0.100000,-0.100000)"
fill="#000000" stroke="none">
<path style="fill:#FFFFFF;" d="M6075 14549 c-54 -33 -57 -71 -14 -159 67 -134 245 -282 376 -314 39
-10 84 -26 101 -36 57 -35 387 -324 518 -455 72 -71 175 -186 229 -255 200
-254 407 -446 926 -860 180 -144 333 -275 366 -311 30 -35 102 -135 159 -221
57 -87 140 -205 185 -263 44 -59 142 -200 216 -313 238 -363 296 -425 579
-621 190 -133 326 -255 358 -325 15 -33 17 -50 10 -105 -16 -122 -11 -164 29
-243 20 -40 65 -110 101 -155 145 -183 178 -247 195 -380 23 -179 93 -305 310
-552 50 -58 90 -112 89 -120 -3 -13 -32 -17 -177 -23 -387 -15 -584 -72 -678
-196 -38 -50 -53 -98 -53 -168 0 -29 -5 -56 -12 -61 -7 -5 -38 -15 -69 -22
-105 -22 -228 -95 -262 -155 -6 -11 -14 -65 -17 -118 -5 -89 -8 -100 -36 -135
-44 -54 -119 -96 -247 -137 -350 -112 -880 -112 -1337 0 -553 136 -1078 443
-1685 984 -456 406 -871 730 -1770 1380 -548 397 -558 404 -710 540 -343 308
-512 412 -612 379 -66 -21 -72 -84 -14 -156 55 -68 174 -181 331 -315 148
-126 288 -267 338 -340 18 -26 60 -102 93 -170 107 -215 235 -385 379 -503
120 -98 113 -88 106 -164 -5 -54 -3 -73 13 -103 36 -72 97 -140 209 -235 205
-175 258 -248 286 -393 38 -202 146 -375 345 -558 50 -46 91 -89 91 -97 0 -8
-17 -16 -42 -20 -111 -17 -188 -94 -209 -209 -10 -56 -1 -200 17 -272 7 -26 4
-27 -126 -49 -133 -22 -194 -54 -246 -130 l-40 -60 -145 -7 c-158 -7 -250 -18
-409 -49 -250 -49 -461 -103 -695 -179 -417 -135 -588 -179 -815 -210 -111
-15 -159 -37 -236 -109 -50 -48 -73 -61 -114 -70 -127 -27 -395 -52 -655 -61
-310 -11 -285 -8 -550 -55 -104 -19 -296 -53 -425 -75 -398 -69 -570 -117
-610 -168 -63 -79 40 -166 266 -223 185 -46 344 -59 854 -69 432 -8 604 -17
1420 -70 168 -10 487 -27 710 -36 431 -17 708 -13 1236 21 581 36 1606 44
1999 15 355 -26 685 -72 984 -136 177 -38 195 -45 286 -109 90 -64 199 -115
415 -195 326 -121 516 -225 497 -274 -4 -9 -25 -17 -54 -21 -70 -10 -166 -42
-263 -88 -65 -31 -101 -57 -150 -108 -75 -77 -171 -184 -184 -207 -5 -9 -12
-68 -16 -132 -4 -63 -13 -135 -21 -160 -20 -66 -80 -121 -201 -181 -146 -73
-191 -109 -225 -177 -27 -55 -28 -62 -24 -172 3 -63 5 -156 5 -205 l0 -91 -46
-69 c-88 -134 -102 -170 -104 -265 -1 -47 -3 -91 -3 -98 -1 -20 -213 -117
-321 -148 -157 -44 -183 -64 -315 -237 -38 -50 -88 -104 -110 -120 -228 -163
-350 -244 -400 -268 -33 -16 -168 -67 -300 -115 -534 -191 -911 -363 -1158
-528 -158 -105 -218 -159 -302 -270 -70 -94 -132 -149 -260 -233 -55 -36 -118
-78 -140 -94 -195 -143 -407 -269 -765 -459 -466 -247 -743 -432 -876 -584
-59 -68 -114 -167 -114 -206 0 -34 31 -60 71 -60 63 0 217 58 429 160 124 60
263 120 310 134 133 40 1410 392 1880 520 1205 326 2138 559 3044 761 630 140
921 187 1836 295 957 113 1283 162 1725 262 276 62 380 100 522 192 146 94
275 149 648 276 278 94 398 150 569 264 157 105 645 485 685 533 16 19 64 103
107 185 43 84 96 170 120 197 53 59 138 104 414 221 459 194 553 236 692 307
215 109 328 188 563 390 403 346 645 624 1113 1283 108 151 254 357 325 456
147 207 165 224 365 331 154 82 242 159 242 211 0 93 -87 154 -325 232 -94 31
-104 36 -165 99 -51 52 -80 93 -130 191 -74 143 -124 221 -172 267 -84 82
-300 172 -498 210 -75 14 -148 18 -345 18 -360 0 -482 -21 -835 -145 -268 -95
-391 -126 -431 -110 -43 18 -90 75 -153 189 -126 224 -163 331 -177 518 -51
669 -276 1108 -793 1552 -56 48 -203 166 -326 261 -124 96 -305 239 -403 318
-689 554 -1491 1084 -2537 1674 -437 247 -763 423 -1660 898 -763 404 -1176
626 -1550 835 -523 291 -844 441 -1135 530 -132 40 -256 55 -290 34z"/>
</g>
</svg>
