<?xml version="1.0" standalone="no"?>
<!DOCTYPE svg PUBLIC "-//W3C//DTD SVG 20010904//EN"
 "http://www.w3.org/TR/2001/REC-SVG-20010904/DTD/svg10.dtd">
<svg version="1.0" xmlns="http://www.w3.org/2000/svg"
 width="800.000000pt" height="800.000000pt" viewBox="0 0 800.000000 800.000000"
 preserveAspectRatio="xMidYMid meet">

<g transform="translate(0.000000,800.000000) scale(0.100000,-0.100000)"
fill="#000000" stroke="none">
<path style="fill:#FFFFFF;" d="M5580 6509 l0 -92 -44 47 c-33 36 -50 47 -67 44 -23 -3 -24 -8 -37
-143 -7 -77 -15 -145 -17 -152 -3 -9 -12 -10 -36 -1 -55 19 -61 -1 -57 -181
l3 -153 -35 -12 -35 -11 -3 -172 c-1 -95 -5 -173 -8 -173 -3 0 -19 8 -35 17
-26 16 -30 16 -45 2 -27 -28 -36 -97 -29 -226 l7 -121 -33 1 -34 2 1 -128 c0
-125 0 -128 -20 -122 -52 16 -68 17 -77 4 -5 -8 -6 -67 -2 -131 l6 -118 -39 0
-39 0 2 -77 c2 -43 8 -102 14 -132 10 -47 9 -55 -5 -63 -21 -12 -20 -31 5 -79
19 -37 19 -42 5 -58 -9 -10 -16 -33 -16 -52 0 -26 -8 -43 -28 -62 -15 -15 -33
-27 -40 -27 -6 0 -80 36 -164 79 -147 77 -175 87 -703 254 -507 161 -580 187
-929 331 -349 145 -613 270 -743 352 -29 19 -98 70 -153 114 -56 44 -103 80
-106 80 -18 0 6 -41 62 -105 36 -41 63 -75 59 -75 -3 0 -28 11 -55 25 -59 30
-60 30 -60 7 0 -23 60 -80 125 -121 l50 -31 -37 0 c-21 0 -38 -4 -38 -8 0 -5
70 -55 155 -113 85 -57 154 -107 155 -111 0 -5 -16 -8 -36 -8 -63 0 -38 -24
126 -120 84 -49 87 -60 15 -60 -51 0 -55 -1 -46 -19 6 -10 39 -28 73 -40 75
-26 205 -90 220 -108 8 -10 0 -13 -41 -13 -28 0 -51 -4 -51 -8 0 -4 56 -35
124 -69 119 -58 123 -61 99 -72 -16 -7 -22 -16 -17 -21 5 -5 74 -39 154 -75
80 -37 149 -71 154 -76 6 -5 -4 -9 -26 -9 -41 0 -57 -15 -37 -34 8 -7 64 -23
124 -36 145 -31 160 -36 145 -54 -9 -12 -7 -17 8 -25 53 -28 161 -61 234 -71
89 -12 110 -20 148 -56 14 -12 43 -29 65 -37 102 -37 132 -47 156 -51 14 -3
40 -19 57 -36 25 -24 41 -30 75 -30 28 0 54 -8 77 -24 19 -13 49 -26 67 -30
27 -6 44 -24 98 -104 36 -53 65 -106 65 -117 0 -32 -35 -80 -128 -177 -127
-132 -177 -168 -487 -351 -255 -150 -312 -190 -637 -437 -323 -245 -386 -300
-345 -300 7 0 78 45 158 101 202 141 301 201 313 189 6 -6 32 3 75 26 39 22
67 32 69 25 6 -18 25 -13 86 24 67 40 86 44 79 15 -7 -25 10 -25 56 -1 34 18
35 18 50 0 16 -18 17 -18 58 1 25 11 45 15 48 9 4 -5 17 -6 30 -3 19 5 27 0
40 -26 9 -17 27 -36 40 -42 23 -10 24 -17 27 -97 3 -81 4 -86 26 -89 12 -2 22
-6 22 -9 0 -3 -11 -37 -25 -75 -14 -38 -25 -80 -25 -94 0 -19 5 -24 25 -24 14
0 25 -2 25 -4 0 -3 -29 -65 -65 -138 -51 -103 -72 -161 -95 -258 -16 -69 -39
-152 -50 -185 -23 -68 -25 -98 -8 -93 19 7 121 197 174 322 59 142 352 725
439 876 37 63 101 174 142 246 61 106 82 136 113 153 43 24 62 27 59 9 -4 -34
1 -39 37 -32 l36 7 -7 -31 c-11 -54 4 -55 52 -2 25 27 72 69 105 92 65 46 104
98 184 242 37 68 79 121 172 220 67 72 132 150 143 173 23 48 47 66 135 99 93
35 132 34 191 -4 44 -28 73 -39 73 -28 0 2 -11 28 -24 57 -13 30 -31 98 -40
153 -27 158 -52 192 -172 231 l-63 20 46 75 c98 159 194 391 244 584 45 173
60 288 66 491 5 192 4 211 -31 460 -20 143 -46 293 -57 334 -44 162 -115 295
-211 397 -72 76 -78 73 -78 -37z"/>
</g>
</svg>
